<?xml version="1.0" standalone="no"?>
<!DOCTYPE svg PUBLIC "-//W3C//DTD SVG 20010904//EN"
 "http://www.w3.org/TR/2001/REC-SVG-20010904/DTD/svg10.dtd">
<svg version="1.0" xmlns="http://www.w3.org/2000/svg"
 width="2000.000000pt" height="2000.000000pt" viewBox="0 0 2000.000000 2000.000000"
 preserveAspectRatio="xMidYMid meet">

<g transform="translate(0.000000,2000.000000) scale(0.100000,-0.100000)"
fill="#000000" stroke="none">
<path d="M10997 13873 c-4 -3 -29 -10 -55 -14 -26 -4 -67 -13 -92 -19 -25 -6
-65 -15 -90 -19 -25 -4 -59 -15 -77 -24 -18 -9 -41 -17 -52 -17 -11 0 -40 -9
-63 -19 -24 -10 -68 -29 -98 -41 -133 -53 -149 -62 -280 -156 -19 -14 -97 -87
-173 -162 -138 -136 -139 -138 -206 -272 -63 -127 -75 -157 -102 -262 -6 -24
-15 -59 -20 -78 -12 -41 -6 -292 8 -365 20 -99 93 -296 158 -422 124 -241 188
-332 339 -483 100 -98 126 -130 126 -152 0 -15 -5 -30 -10 -33 -16 -10 -50
-82 -50 -106 0 -11 -9 -32 -20 -46 -11 -14 -20 -33 -20 -43 0 -9 -13 -37 -30
-61 -16 -24 -30 -54 -30 -66 0 -12 -9 -43 -20 -68 -11 -25 -29 -65 -40 -90
-11 -25 -20 -55 -20 -66 0 -11 -9 -37 -20 -59 -11 -22 -20 -49 -20 -60 0 -11
-13 -47 -30 -80 -16 -33 -30 -69 -30 -80 0 -11 -9 -38 -20 -60 -11 -22 -20
-53 -20 -70 0 -17 -9 -48 -20 -70 -11 -22 -20 -47 -20 -57 0 -10 -14 -56 -30
-103 -16 -47 -30 -98 -30 -113 0 -15 -9 -45 -20 -67 -11 -22 -20 -52 -20 -67
0 -15 -8 -48 -17 -73 -9 -25 -20 -67 -25 -95 -5 -27 -13 -71 -18 -97 -22 -109
-31 -156 -40 -208 -5 -30 -14 -80 -21 -110 -8 -34 -13 -182 -16 -392 -3 -323
-3 -339 17 -377 11 -22 20 -48 20 -58 1 -47 69 -197 95 -207 9 -3 18 -6 20 -6
2 0 6 55 8 123 7 176 20 233 128 532 16 44 29 88 29 98 0 10 11 40 25 67 29
58 55 128 55 152 0 10 13 46 29 80 59 128 71 159 71 178 0 11 14 50 31 87 103
224 153 330 160 343 5 8 14 26 20 40 6 14 15 32 20 40 5 8 14 26 20 40 6 14
19 41 29 60 11 19 29 55 41 80 12 25 25 52 30 60 5 8 23 42 40 75 18 33 40 71
50 84 11 13 19 32 19 41 0 10 7 23 16 31 22 18 84 114 84 130 0 8 25 39 54 70
37 39 57 68 61 93 4 19 14 41 22 47 8 7 44 56 79 108 35 53 80 116 99 141 65
85 103 145 134 213 17 37 45 96 61 132 48 104 39 230 -22 318 -73 105 -129
143 -295 201 -154 54 -163 58 -258 120 -90 59 -275 229 -275 253 0 7 -9 33
-20 58 -11 25 -29 65 -40 90 -17 40 -20 67 -20 209 0 133 3 166 15 176 8 7 20
31 26 54 16 59 218 263 292 296 29 12 81 35 117 51 64 27 94 38 175 57 22 6
58 15 80 22 53 15 793 7 885 -9 36 -6 94 -15 130 -20 36 -5 81 -14 100 -21 54
-19 140 -38 258 -58 26 -5 58 -14 72 -22 14 -7 43 -17 65 -22 22 -5 58 -13 80
-19 22 -6 60 -14 85 -18 25 -4 56 -13 70 -21 14 -7 41 -17 60 -21 19 -5 53
-12 75 -17 22 -5 54 -16 72 -25 18 -9 46 -17 63 -17 17 0 45 -7 62 -16 41 -21
81 -34 141 -45 26 -5 68 -13 95 -18 26 -5 63 -14 82 -21 19 -7 60 -16 90 -20
30 -5 75 -14 100 -20 84 -22 225 -32 470 -32 265 0 367 8 417 35 18 9 45 17
60 17 37 0 98 22 183 65 38 19 75 35 82 35 25 0 97 58 211 169 125 123 202
226 257 346 18 39 45 98 61 133 57 123 37 122 -95 -6 -96 -93 -245 -203 -311
-229 -16 -6 -50 -19 -75 -28 -25 -9 -52 -22 -60 -29 -8 -7 -35 -19 -60 -26
-25 -7 -67 -25 -95 -38 -99 -50 -212 -64 -495 -65 -140 0 -246 4 -280 12 -30
6 -80 16 -110 21 -74 12 -126 24 -180 44 -25 8 -56 16 -69 16 -28 0 -34 2
-243 69 -86 28 -164 51 -173 51 -8 0 -42 14 -75 30 -33 17 -73 30 -90 30 -17
0 -45 7 -61 16 -17 8 -57 24 -89 34 -32 10 -72 26 -89 34 -16 9 -44 16 -61 16
-17 0 -47 8 -68 18 -20 10 -57 24 -82 31 -25 7 -59 17 -76 22 -17 5 -38 9 -48
9 -9 0 -34 9 -56 20 -22 11 -53 20 -70 20 -17 0 -48 9 -70 20 -22 11 -52 20
-67 20 -15 0 -48 8 -73 17 -25 9 -83 20 -130 24 -80 7 -106 11 -240 40 -61 13
-632 24 -643 12z"/>
<path d="M8930 12050 c-8 -5 -28 -10 -45 -10 -28 0 -124 -31 -242 -79 -29 -12
-76 -30 -103 -40 -99 -38 -268 -163 -399 -294 -68 -69 -136 -147 -152 -173
-75 -130 -149 -286 -149 -314 0 -17 -8 -45 -17 -63 -30 -58 -36 -110 -40 -325
-3 -193 -2 -219 16 -265 29 -78 39 -107 56 -169 9 -31 23 -62 31 -69 8 -6 14
-19 14 -28 0 -9 18 -41 40 -71 22 -30 51 -71 64 -90 13 -19 81 -91 150 -160
113 -112 126 -128 126 -160 0 -32 -19 -54 -237 -277 -284 -289 -435 -457 -468
-523 -10 -19 -26 -46 -36 -59 -15 -18 -19 -41 -19 -98 0 -85 18 -130 72 -178
84 -77 120 -91 258 -104 115 -10 161 -39 328 -204 79 -78 163 -171 187 -207
23 -36 53 -74 65 -85 12 -11 32 -40 45 -65 13 -25 33 -54 45 -65 12 -11 38
-45 58 -75 56 -87 93 -127 332 -372 131 -133 242 -238 265 -250 22 -11 55 -34
73 -49 18 -16 41 -29 51 -29 9 0 28 -11 40 -24 14 -15 58 -35 109 -52 48 -15
98 -36 111 -46 21 -16 47 -18 245 -18 196 0 227 2 276 20 30 11 64 20 76 20
12 0 32 8 45 18 13 11 35 22 49 25 14 4 49 21 77 39 29 18 72 44 95 58 75 44
236 208 270 275 17 33 36 67 44 75 7 9 27 57 43 108 17 50 37 105 46 121 11
21 15 60 15 134 0 100 -1 106 -30 145 -17 23 -35 42 -40 42 -6 0 -10 -37 -10
-89 0 -50 -5 -93 -10 -96 -6 -4 -20 -25 -31 -48 -35 -70 -173 -201 -299 -284
-63 -42 -126 -86 -140 -98 -14 -13 -37 -25 -51 -28 -14 -4 -42 -18 -63 -32
-20 -14 -45 -25 -54 -25 -10 0 -42 -9 -72 -20 -79 -29 -281 -29 -360 0 -30 11
-63 20 -73 20 -22 0 -119 48 -178 89 -43 29 -301 289 -368 370 -18 22 -47 62
-64 88 -17 27 -47 67 -66 90 -68 80 -88 108 -109 150 -12 23 -26 44 -31 48
-13 7 -66 87 -90 133 -11 20 -40 57 -66 82 -26 25 -57 65 -70 90 -13 25 -77
98 -147 166 -113 111 -160 148 -247 196 -67 37 -66 39 352 451 210 207 417
410 460 450 61 59 77 79 77 102 0 24 27 57 148 182 225 233 266 279 352 401
16 24 37 57 46 75 9 18 26 42 37 55 28 31 64 94 135 237 134 270 135 273 135
485 0 179 -8 223 -62 329 -55 109 -71 131 -156 219 -58 61 -88 83 -180 130
-60 30 -130 59 -155 63 -25 4 -65 13 -90 20 -58 16 -320 23 -340 9z m343 -581
c12 -6 37 -25 55 -42 l32 -31 0 -143 0 -143 -65 -128 c-74 -144 -83 -159 -173
-297 -64 -97 -96 -137 -211 -265 -50 -56 -57 -60 -98 -60 -24 0 -61 9 -83 20
-22 11 -44 20 -50 20 -31 0 -200 154 -251 228 -29 43 -29 44 -29 193 l0 149
41 82 c54 106 69 128 159 221 59 62 93 88 162 123 48 24 98 44 110 44 13 1 39
9 58 20 30 16 56 19 178 20 87 0 152 -4 165 -11z"/>
<path d="M13335 11818 c-27 -11 -68 -27 -90 -35 -22 -8 -47 -21 -56 -29 -8 -8
-22 -14 -30 -14 -8 0 -25 -8 -39 -17 -26 -19 -139 -82 -291 -161 -99 -52 -184
-106 -194 -123 -4 -5 -34 -23 -68 -40 -65 -33 -103 -58 -154 -101 -18 -15 -51
-32 -72 -38 -22 -6 -43 -15 -46 -21 -4 -5 -46 -30 -93 -55 -93 -48 -140 -75
-184 -105 -15 -11 -33 -19 -40 -19 -7 0 -51 -27 -98 -60 -47 -32 -115 -80
-152 -105 -37 -24 -70 -49 -73 -55 -4 -6 -25 -20 -48 -31 -23 -12 -65 -42 -94
-68 -29 -25 -75 -64 -104 -86 -69 -53 -416 -400 -454 -454 -16 -23 -48 -64
-70 -91 -22 -28 -52 -65 -66 -82 -15 -18 -36 -52 -47 -75 -12 -23 -26 -44 -32
-48 -14 -9 -80 -110 -80 -124 0 -16 -38 -90 -61 -120 -11 -13 -19 -30 -19 -38
0 -8 -9 -26 -20 -40 -11 -14 -20 -35 -20 -46 0 -11 -4 -34 -9 -51 -5 -17 -15
-51 -22 -76 -7 -25 -21 -62 -31 -82 -15 -32 -18 -63 -18 -217 0 -159 2 -186
20 -226 11 -25 29 -65 40 -90 11 -25 20 -51 20 -57 0 -53 225 -278 278 -278 7
0 30 -9 52 -20 58 -30 271 -29 350 1 30 12 71 27 91 34 74 28 186 116 304 238
145 151 205 222 205 244 0 9 7 25 17 35 18 20 36 50 54 88 6 14 27 59 46 100
73 154 93 240 100 415 5 130 -3 169 -73 356 -18 50 -64 116 -113 164 -23 21
-41 45 -41 52 0 7 -4 13 -10 13 -5 0 -10 10 -10 23 0 27 102 128 168 167 24
14 59 35 78 48 19 12 40 22 47 22 7 0 38 18 69 40 62 42 249 140 270 140 7 0
33 14 57 30 24 17 52 30 61 30 10 0 28 8 41 18 31 24 99 45 130 40 22 -3 24
-7 22 -53 -3 -79 -14 -139 -29 -155 -7 -9 -21 -40 -29 -70 -9 -30 -20 -66 -25
-80 -4 -14 -13 -38 -18 -55 -40 -118 -92 -286 -92 -300 0 -9 -8 -30 -17 -48
-9 -18 -20 -53 -25 -79 -4 -27 -12 -69 -16 -95 -5 -27 -14 -59 -22 -73 -8 -14
-18 -50 -22 -80 -9 -67 -23 -140 -38 -200 -7 -25 -16 -79 -20 -120 -5 -41 -14
-100 -21 -130 -15 -69 -17 -642 -2 -715 28 -135 85 -260 118 -260 18 0 21 9
26 120 8 132 18 200 41 260 18 46 25 67 68 195 58 174 101 292 115 321 8 15
15 37 15 49 0 11 14 47 30 80 17 33 30 70 30 83 0 14 6 30 14 36 8 7 21 35 30
64 9 29 35 93 57 142 47 103 218 463 230 485 35 62 49 91 49 103 0 8 9 22 20
32 11 10 20 24 20 30 0 7 7 18 15 25 8 7 19 29 25 50 6 21 26 57 45 80 19 23
35 50 35 59 0 10 9 26 21 37 12 10 32 40 45 66 13 26 28 49 33 53 13 7 67 87
90 134 11 21 27 44 36 51 9 8 27 34 40 59 12 25 33 55 45 66 12 11 47 58 78
105 30 47 71 101 90 122 41 44 53 88 59 222 4 89 2 102 -16 127 -12 16 -21 35
-21 43 0 16 -47 75 -140 178 -103 112 -255 161 -365 116z m-1588 -1710 c49
-52 53 -68 53 -205 0 -118 -3 -135 -31 -213 -17 -47 -46 -129 -65 -183 -32
-91 -77 -185 -143 -301 -37 -63 -249 -277 -325 -327 -59 -39 -61 -39 -158 -39
l-98 0 -20 33 c-19 29 -20 46 -17 202 4 190 12 238 51 293 14 21 26 44 26 50
0 18 44 100 79 147 17 22 47 65 67 95 20 30 132 151 248 268 l211 212 45 0
c39 0 51 -5 77 -32z"/>
<path d="M7030 11814 c-58 -22 -92 -44 -142 -92 -32 -30 -58 -61 -58 -69 0 -7
-4 -13 -9 -13 -13 0 -41 -64 -41 -94 0 -18 -15 -43 -45 -75 -25 -26 -45 -52
-45 -56 0 -4 -35 -43 -77 -87 -43 -43 -80 -84 -82 -91 -2 -7 -47 -56 -100
-110 -53 -54 -98 -103 -100 -110 -2 -7 -123 -132 -270 -280 -146 -147 -268
-273 -270 -280 -2 -6 -25 -34 -50 -60 -25 -27 -48 -54 -50 -60 -2 -6 -17 -25
-33 -42 -15 -16 -28 -34 -28 -38 0 -4 -13 -22 -30 -40 -16 -18 -30 -38 -30
-44 0 -7 -4 -13 -8 -13 -5 0 -15 -12 -23 -27 -8 -16 -26 -41 -41 -58 -16 -16
-28 -36 -28 -42 0 -7 -4 -13 -10 -13 -5 0 -10 -7 -10 -16 0 -8 -13 -29 -30
-47 -16 -18 -30 -38 -30 -44 0 -7 -4 -13 -10 -13 -5 0 -10 -9 -10 -20 0 -11
-4 -20 -10 -20 -5 0 -10 -9 -10 -20 0 -11 -4 -20 -10 -20 -5 0 -10 -9 -10 -20
0 -11 -4 -20 -10 -20 -5 0 -10 -9 -10 -20 0 -11 -4 -20 -10 -20 -5 0 -10 -9
-10 -20 0 -11 -4 -20 -10 -20 -5 0 -10 -9 -10 -20 0 -11 -4 -20 -10 -20 -5 0
-10 -9 -10 -20 0 -11 -4 -20 -8 -20 -5 0 -15 -22 -22 -50 -7 -27 -17 -50 -21
-50 -3 0 -9 -12 -12 -27 -3 -16 -15 -70 -27 -122 -36 -167 -20 -385 31 -440
10 -11 19 -27 19 -36 0 -8 5 -15 10 -15 6 0 10 -6 10 -14 0 -16 145 -156 161
-156 6 0 23 -9 38 -20 43 -30 173 -53 261 -46 150 11 202 24 306 72 62 29 98
30 124 4 24 -24 26 -69 5 -165 -28 -128 -39 -248 -39 -435 0 -195 16 -372 33
-378 6 -2 11 -12 11 -23 0 -10 4 -19 9 -19 5 0 15 -31 21 -70 6 -38 16 -70 21
-70 5 0 9 -9 9 -20 0 -11 5 -20 10 -20 6 0 10 -9 10 -20 0 -11 5 -20 10 -20 6
0 10 -9 10 -20 0 -11 5 -20 10 -20 6 0 10 -6 10 -13 0 -7 9 -23 20 -35 11 -12
20 -25 20 -30 0 -13 286 -292 300 -292 6 0 30 -13 53 -28 70 -46 200 -102 240
-102 7 0 26 -8 42 -17 46 -26 327 -31 443 -8 87 18 101 22 179 56 24 11 48 19
54 19 11 0 132 59 204 99 46 26 285 259 285 278 0 7 5 13 10 13 6 0 10 7 10
15 0 9 9 25 20 37 11 12 20 28 20 35 0 7 4 13 9 13 4 0 14 27 21 60 7 33 17
60 21 60 5 0 9 9 9 20 0 11 5 20 10 20 6 0 10 9 10 19 0 11 5 21 11 23 13 4
25 135 15 173 -11 43 -46 29 -78 -30 -15 -28 -77 -100 -142 -164 -120 -120
-115 -117 -391 -262 -55 -29 -122 -57 -150 -62 -27 -5 -139 -12 -249 -14 -171
-3 -201 -2 -216 12 -10 9 -34 20 -54 26 -20 6 -60 30 -89 54 -29 24 -69 59
-91 77 -47 40 -116 144 -116 175 0 13 -9 42 -20 64 -19 37 -20 54 -17 267 5
257 15 332 61 420 9 17 16 44 16 59 0 33 20 94 38 115 6 8 20 42 31 75 23 71
143 303 194 373 9 14 17 30 17 37 0 7 25 49 55 93 30 45 67 104 81 133 15 29
36 62 47 75 21 23 44 60 112 182 20 36 47 83 60 105 22 35 25 52 25 140 0 108
-13 159 -55 220 -14 21 -25 46 -25 56 0 30 -69 98 -132 130 -78 39 -138 39
-218 -1 -32 -16 -61 -34 -65 -40 -3 -5 -15 -10 -27 -10 -27 0 -173 -143 -204
-200 -14 -25 -32 -58 -41 -75 -9 -16 -20 -37 -25 -45 -4 -8 -19 -35 -32 -60
-13 -25 -71 -90 -129 -145 -150 -142 -212 -192 -295 -234 -20 -10 -46 -28 -56
-40 -11 -12 -26 -21 -35 -21 -9 0 -36 -14 -60 -30 -24 -17 -50 -30 -58 -30 -8
0 -31 -9 -53 -20 -23 -12 -59 -20 -86 -20 l-47 0 7 47 c3 26 10 49 14 52 5 4
15 27 23 54 7 26 17 47 21 47 4 0 8 9 8 20 0 11 5 20 10 20 6 0 10 7 10 16 0
8 13 29 30 47 16 18 30 36 30 40 0 4 9 17 20 29 11 12 20 28 20 35 0 7 5 13
10 13 6 0 10 9 10 20 0 11 4 20 8 20 5 0 15 12 23 28 7 15 39 53 69 85 30 32
57 64 59 70 8 28 581 592 655 645 175 127 206 150 256 193 73 61 390 371 390
382 0 4 9 17 20 29 10 11 25 45 31 74 7 30 16 54 21 54 4 0 8 9 8 19 0 11 6
21 13 24 9 3 12 37 12 127 0 90 -3 124 -12 128 -7 2 -13 12 -13 23 0 10 -4 19
-10 19 -5 0 -10 9 -10 20 0 11 -4 20 -10 20 -5 0 -10 6 -10 13 0 20 -102 113
-140 127 -19 7 -41 18 -49 24 -14 11 -206 19 -231 10z"/>
<path d="M14315 11744 c-94 -48 -149 -103 -197 -198 -37 -73 -39 -83 -35 -145
9 -127 26 -167 112 -259 23 -26 72 -60 118 -83 l78 -40 227 5 c125 2 261 9
302 15 41 7 118 16 170 21 52 4 119 13 148 19 55 12 122 25 200 40 26 6 67 15
92 21 25 7 74 16 110 21 125 16 248 39 328 58 23 6 60 16 82 21 22 6 59 15 83
21 23 5 62 14 87 18 25 4 54 12 66 19 35 19 108 42 134 42 41 0 125 34 128 52
3 18 -44 48 -75 48 -10 0 -43 9 -73 20 -30 11 -67 20 -83 20 -15 0 -45 9 -67
20 -22 11 -52 20 -67 20 -15 0 -48 8 -73 17 -25 9 -67 20 -95 25 -74 13 -134
25 -185 38 -77 19 -142 31 -220 40 -41 4 -95 13 -120 20 -52 13 -121 27 -200
40 -30 5 -80 14 -110 20 -30 7 -98 16 -150 20 -52 5 -129 14 -170 21 -41 6
-165 13 -275 15 l-200 3 -70 -35z"/>
<path d="M5516 11733 c-4 -5 -53 -11 -109 -16 -56 -4 -154 -11 -217 -16 -63
-5 -140 -14 -170 -21 -30 -6 -98 -16 -150 -20 -98 -9 -186 -21 -300 -40 -36
-6 -103 -15 -150 -20 -47 -5 -110 -14 -140 -20 -30 -6 -81 -15 -112 -20 -32
-6 -86 -15 -120 -20 -35 -6 -97 -15 -138 -19 -41 -4 -91 -14 -110 -21 -19 -7
-64 -16 -100 -20 -36 -5 -85 -13 -110 -20 -57 -14 -188 -41 -290 -58 -89 -16
-111 -44 -64 -81 19 -15 41 -21 78 -21 28 0 76 -9 106 -20 30 -11 75 -20 100
-20 25 0 65 -8 90 -16 72 -26 130 -38 310 -64 36 -5 94 -14 130 -20 36 -6 103
-15 150 -19 47 -5 105 -14 130 -21 44 -11 108 -21 260 -40 41 -5 100 -14 130
-20 60 -12 161 -25 310 -40 52 -5 129 -14 170 -21 42 -6 234 -13 432 -15 l358
-4 57 29 c71 36 172 138 207 208 22 43 26 66 26 133 0 69 -4 89 -29 138 -40
78 -138 171 -228 216 l-73 36 -213 0 c-118 0 -217 -3 -221 -7z"/>
</g>
</svg>
